<svg xmlns="http://www.w3.org/2000/svg" xmlns:xlink="http://www.w3.org/1999/xlink" width="40" zoomAndPan="magnify" viewBox="0 0 30 30.000001" height="40" preserveAspectRatio="xMidYMid meet" version="1.0"><defs><clipPath id="a621188cb0"><path d="M 3 19 L 5 19 L 5 20.945312 L 3 20.945312 Z M 3 19 " clip-rule="nonzero"/></clipPath><clipPath id="33f88c99cd"><path d="M 10 19 L 13 19 L 13 20.945312 L 10 20.945312 Z M 10 19 " clip-rule="nonzero"/></clipPath><clipPath id="5dcdafbe2d"><path d="M 1 7.882812 L 14 7.882812 L 14 20 L 1 20 Z M 1 7.882812 " clip-rule="nonzero"/></clipPath><clipPath id="703d36a7e1"><path d="M 0.484375 11 L 2 11 L 2 15 L 0.484375 15 Z M 0.484375 11 " clip-rule="nonzero"/></clipPath><clipPath id="c53246df2d"><path d="M 14 11 L 15 11 L 15 15 L 14 15 Z M 14 11 " clip-rule="nonzero"/></clipPath><clipPath id="3b117e4bc0"><path d="M 8.105469 0 L 29.515625 0 L 29.515625 29.03125 L 8.105469 29.03125 Z M 8.105469 0 " clip-rule="nonzero"/></clipPath></defs><g clip-path="url(#a621188cb0)"><path fill="#ffb24b" d="M 3.183594 19.601562 L 3.183594 20.355469 C 3.183594 20.675781 3.453125 20.9375 3.785156 20.9375 L 4.390625 20.9375 C 4.722656 20.9375 4.992188 20.675781 4.992188 20.355469 L 4.992188 19.601562 Z M 3.183594 19.601562 " fill-opacity="1" fill-rule="nonzero"/></g><g clip-path="url(#33f88c99cd)"><path fill="#ffb24b" d="M 10.496094 19.601562 L 10.496094 20.355469 C 10.496094 20.675781 10.765625 20.9375 11.101562 20.9375 L 11.703125 20.9375 C 12.035156 20.9375 12.304688 20.675781 12.304688 20.355469 L 12.304688 19.601562 Z M 10.496094 19.601562 " fill-opacity="1" fill-rule="nonzero"/></g><g clip-path="url(#5dcdafbe2d)"><path fill="#ffb24b" d="M 11.488281 7.886719 L 4 7.886719 C 2.820312 7.886719 1.863281 8.808594 1.863281 9.945312 L 1.863281 18.425781 C 1.863281 18.839844 2.214844 19.175781 2.644531 19.175781 L 12.84375 19.175781 C 13.277344 19.175781 13.625 18.839844 13.625 18.425781 L 13.625 9.945312 C 13.625 8.808594 12.667969 7.886719 11.488281 7.886719 Z M 3.773438 17.765625 C 3.316406 17.765625 2.949219 17.410156 2.949219 16.972656 C 2.949219 16.535156 3.316406 16.179688 3.773438 16.179688 C 4.230469 16.179688 4.597656 16.535156 4.597656 16.972656 C 4.597656 17.410156 4.230469 17.765625 3.773438 17.765625 Z M 10.304688 17.730469 L 5.480469 17.730469 C 5.320312 17.730469 5.195312 17.609375 5.195312 17.457031 C 5.195312 17.304688 5.320312 17.183594 5.480469 17.183594 L 10.304688 17.183594 C 10.460938 17.183594 10.589844 17.304688 10.589844 17.457031 C 10.589844 17.609375 10.460938 17.730469 10.304688 17.730469 Z M 10.304688 16.761719 L 5.480469 16.761719 C 5.320312 16.761719 5.195312 16.640625 5.195312 16.488281 C 5.195312 16.339844 5.320312 16.214844 5.480469 16.214844 L 10.304688 16.214844 C 10.460938 16.214844 10.589844 16.339844 10.589844 16.488281 C 10.589844 16.640625 10.460938 16.761719 10.304688 16.761719 Z M 11.714844 17.765625 C 11.261719 17.765625 10.890625 17.410156 10.890625 16.972656 C 10.890625 16.535156 11.261719 16.179688 11.714844 16.179688 C 12.171875 16.179688 12.539062 16.535156 12.539062 16.972656 C 12.539062 17.410156 12.171875 17.765625 11.714844 17.765625 Z M 12.539062 13.316406 C 12.539062 14.085938 11.890625 14.710938 11.089844 14.710938 L 4.402344 14.710938 C 3.597656 14.710938 2.949219 14.085938 2.949219 13.316406 L 2.949219 10.269531 C 2.949219 9.496094 3.597656 8.871094 4.402344 8.871094 L 11.089844 8.871094 C 11.890625 8.871094 12.539062 9.496094 12.539062 10.269531 Z M 12.539062 13.316406 " fill-opacity="1" fill-rule="nonzero"/></g><path fill="#ffb24b" d="M 9.019531 14.285156 C 9.035156 13.855469 9.402344 13.511719 9.851562 13.511719 C 10.304688 13.511719 10.667969 13.855469 10.683594 14.285156 L 11.289062 14.285156 C 11.273438 13.535156 10.636719 12.933594 9.851562 12.933594 C 9.070312 12.933594 8.429688 13.535156 8.414062 14.285156 Z M 9.019531 14.285156 " fill-opacity="1" fill-rule="nonzero"/><g clip-path="url(#703d36a7e1)"><path fill="#ffb24b" d="M 1.472656 13.8125 C 1.472656 14.074219 1.25 14.285156 0.980469 14.285156 C 0.707031 14.285156 0.484375 14.074219 0.484375 13.8125 L 0.484375 11.664062 C 0.484375 11.402344 0.707031 11.191406 0.980469 11.191406 C 1.25 11.191406 1.472656 11.402344 1.472656 11.664062 Z M 1.472656 13.8125 " fill-opacity="1" fill-rule="nonzero"/></g><g clip-path="url(#c53246df2d)"><path fill="#ffb24b" d="M 15.003906 13.8125 C 15.003906 14.074219 14.78125 14.285156 14.511719 14.285156 C 14.238281 14.285156 14.019531 14.074219 14.019531 13.8125 L 14.019531 11.664062 C 14.019531 11.402344 14.238281 11.191406 14.511719 11.191406 C 14.78125 11.191406 15.003906 11.402344 15.003906 11.664062 Z M 15.003906 13.8125 " fill-opacity="1" fill-rule="nonzero"/></g><g clip-path="url(#3b117e4bc0)"><path fill="#ffb24b" d="M 8.542969 1.984375 C 9.023438 2.457031 15.308594 8.625 15.308594 8.625 C 15.308594 8.625 15.3125 26.484375 15.3125 27.621094 C 15.3125 28.390625 15.953125 29.011719 16.734375 29.011719 C 17.515625 29.011719 18.152344 28.386719 18.152344 27.621094 L 18.152344 16.742188 L 18.628906 16.742188 L 18.628906 27.621094 C 18.628906 28.386719 19.261719 29.007812 20.042969 29.007812 C 20.824219 29.007812 21.460938 28.382812 21.460938 27.621094 C 21.460938 27.359375 21.453125 26.269531 21.457031 24.730469 L 27.105469 24.738281 L 27.105469 16.5625 L 25.46875 16.5625 L 25.46875 15.394531 C 25.46875 15.070312 25.203125 14.8125 24.882812 14.8125 L 24.167969 14.8125 C 24.167969 14.8125 24.171875 9.34375 24.171875 8.5625 C 24.171875 6.882812 22.710938 5.523438 21.007812 5.523438 L 15.289062 5.523438 C 15.289062 5.523438 10.976562 1.324219 10.097656 0.453125 C 9.667969 0.0273438 8.976562 0.0195312 8.542969 0.445312 C 8.109375 0.867188 8.109375 1.558594 8.542969 1.984375 Z M 21.4375 16.5625 L 21.4375 9.285156 L 21.917969 9.285156 L 21.917969 16.5625 Z M 22.554688 16.5625 L 22.554688 15.445312 L 24.828125 15.445312 L 24.828125 16.5625 Z M 15.921875 2.542969 C 15.921875 3.855469 17 4.914062 18.335938 4.914062 C 19.667969 4.914062 20.746094 3.855469 20.746094 2.542969 C 20.746094 1.234375 19.667969 0.171875 18.335938 0.171875 C 17 0.171875 15.921875 1.234375 15.921875 2.542969 Z M 27.714844 24.738281 L 28.597656 24.738281 C 29.300781 24.738281 29.875 24.179688 29.875 23.480469 L 29.875 17.832031 C 29.875 17.136719 29.300781 16.574219 28.597656 16.574219 L 27.714844 16.574219 Z M 27.714844 24.738281 " fill-opacity="1" fill-rule="nonzero"/></g></svg>
