<svg width="40" height="40" fill="none" xmlns="http://www.w3.org/2000/svg"><path d="M17.84.092C8.887 1.144 1.83 7.783.247 16.62c-.33 1.852-.33 4.929 0 6.78 1.145 6.342 5.143 11.694 10.898 14.582 4.547 2.26 10.255 2.653 15.115 1.02 5.19-1.742 9.44-5.525 11.792-10.532.94-1.977 1.474-3.876 1.772-6.388.235-1.915.235-2.229 0-4.16-.142-1.13-.44-2.715-.659-3.484C37.08 7.25 30.839 1.6 23.563.328 21.73.014 19.345-.096 17.84.092Zm4.83 2.104C29.334 3.2 34.9 7.893 37.047 14.36c3.152 9.37-1.991 19.604-11.446 22.759-6.43 2.166-13.5.47-18.362-4.38-2.775-2.793-4.5-6.183-5.08-10.013-.862-5.745.972-11.317 5.08-15.445 4.124-4.112 9.69-5.949 15.43-5.085Z" fill="#006FE6"/><path d="M25.665 7.124c-2.258.55-3.168 3.28-1.678 5.054.22.251.596.565.846.706.377.189.455.33.455.817 0 1.208.016 1.193-4.186 1.287-3.623.078-3.764.094-4.61.486-3.309 1.554-4.077 5.745-1.537 8.288.345.345.956.785 1.364.989.69.345.957.36 4.783.44 3.355.062 4.06.125 4.186.313.204.314.204 1.57 0 1.57-.345 0-1.254 1.004-1.505 1.648-.894 2.37 1.113 4.661 3.606 4.128 1.474-.314 2.619-1.994 2.352-3.453-.14-.77-.768-1.774-1.348-2.135-.455-.298-.533-.44-.69-1.46-.22-1.287-.721-2.04-1.725-2.558-.58-.314-.815-.33-4.234-.283-3.81.063-4.343-.015-5.127-.722-1.02-.926-1.176-2.7-.33-3.751.863-1.052 1.114-1.114 5.41-1.256 3.7-.125 3.873-.141 4.407-.502.909-.628 1.285-1.318 1.348-2.543.063-1.02.094-1.083.643-1.46 1.474-1.02 1.772-3.139.643-4.52-.721-.879-2.007-1.334-3.073-1.083Zm1.223 2.48c.391.361.36.926-.095 1.224-.768.518-1.615-.345-1.097-1.13.266-.424.784-.47 1.191-.094Zm.25 19.604c.408.283.44.785.079 1.193-.36.408-.925.361-1.223-.094-.282-.424-.141-.895.36-1.177.361-.22.377-.22.784.078Z" fill="#006FE6"/><path d="M15.802 9.416c-3.92.879-6.884 3.563-8.154 7.345-1.678 5.023.721 10.8 5.425 13.122 1.882.926 2.729 1.13 5.332 1.224 2.634.095 3.292-.03 3.575-.722.22-.518.015-1.177-.44-1.412-.172-.094-1.27-.173-2.555-.173-3.403 0-5.143-.628-7.025-2.511-1.74-1.742-2.556-3.72-2.54-6.184.016-3.108 1.552-5.808 4.186-7.393 1.537-.91 2.666-1.193 5.222-1.287 1.787-.079 2.305-.141 2.572-.361.423-.33.439-1.13.047-1.57-.267-.282-.47-.314-2.494-.298-1.223 0-2.634.11-3.151.22Z" fill="#006FE6"/><path d="M28.299 17.2a3.519 3.519 0 0 0-1.145 1.021l-.47.69-3.56.016c-1.96 0-3.888.063-4.312.126-1.207.204-1.584 1.067-.8 1.852l.408.408 4.187-.094 4.186-.11.267.471c.674 1.13 2.085 1.68 3.465 1.334 1.788-.455 2.776-2.543 1.992-4.238a3.104 3.104 0 0 0-4.218-1.475Zm1.787 1.994c.612.408.518 1.366-.172 1.539-.847.203-1.38-.927-.675-1.413.392-.283.58-.298.847-.126Z" fill="#006FE6"/></svg>