<svg xmlns="http://www.w3.org/2000/svg" xmlns:xlink="http://www.w3.org/1999/xlink" width="40" zoomAndPan="magnify" viewBox="0 0 30 30.000001" height="40" preserveAspectRatio="xMidYMid meet" version="1.0"><defs><clipPath id="id1"><path d="M 22 0 L 29.515625 0 L 29.515625 7 L 22 7 Z M 22 0 " clip-rule="nonzero"/></clipPath><clipPath id="id2"><path d="M 22 22 L 29.515625 22 L 29.515625 29.03125 L 22 29.03125 Z M 22 22 " clip-rule="nonzero"/></clipPath><clipPath id="id3"><path d="M 0.484375 0 L 8 0 L 8 7 L 0.484375 7 Z M 0.484375 0 " clip-rule="nonzero"/></clipPath><clipPath id="id4"><path d="M 0.484375 22 L 8 22 L 8 29.03125 L 0.484375 29.03125 Z M 0.484375 22 " clip-rule="nonzero"/></clipPath></defs><path fill="#3ea76a" d="M 6.464844 6.253906 C 6.464844 6.101562 6.585938 5.976562 6.742188 5.976562 L 8.320312 5.976562 C 8.472656 5.976562 8.597656 6.101562 8.597656 6.253906 L 8.597656 7.832031 C 8.597656 7.988281 8.472656 8.109375 8.320312 8.109375 L 6.742188 8.109375 C 6.585938 8.109375 6.464844 7.988281 6.464844 7.832031 Z M 4.328125 8.109375 L 4.328125 9.027344 C 4.328125 9.699219 4.875 10.246094 5.546875 10.246094 L 9.515625 10.246094 C 10.1875 10.246094 10.734375 9.699219 10.734375 9.027344 L 10.734375 5.058594 C 10.734375 4.386719 10.1875 3.839844 9.515625 3.839844 L 5.542969 3.84375 C 4.871094 3.84375 4.328125 4.386719 4.328125 5.0625 L 4.328125 8.109375 " fill-opacity="1" fill-rule="nonzero"/><path fill="#3ea76a" d="M 13.3125 8.109375 L 14.558594 8.109375 C 14.804688 8.109375 15.003906 7.910156 15.003906 7.664062 L 15.003906 6.421875 C 15.003906 6.175781 15.203125 5.976562 15.449219 5.976562 L 16.691406 5.976562 C 16.9375 5.976562 17.136719 5.777344 17.136719 5.53125 L 17.136719 4.285156 C 17.136719 4.039062 16.9375 3.839844 16.691406 3.839844 L 13.3125 3.839844 C 13.066406 3.839844 12.867188 4.039062 12.867188 4.285156 L 12.867188 7.664062 C 12.867188 7.910156 13.066406 8.109375 13.3125 8.109375 " fill-opacity="1" fill-rule="nonzero"/><path fill="#3ea76a" d="M 5.863281 23.054688 L 4.929688 23.054688 C 4.597656 23.054688 4.328125 23.324219 4.328125 23.65625 L 4.328125 24.589844 C 4.328125 24.921875 4.597656 25.191406 4.929688 25.191406 L 5.863281 25.191406 C 6.195312 25.191406 6.464844 24.921875 6.464844 24.589844 L 6.464844 23.65625 C 6.464844 23.324219 6.195312 23.054688 5.863281 23.054688 " fill-opacity="1" fill-rule="nonzero"/><path fill="#3ea76a" d="M 13.367188 12.382812 L 16.640625 12.382812 C 16.914062 12.382812 17.136719 12.15625 17.136719 11.882812 L 17.136719 8.609375 C 17.136719 8.335938 16.914062 8.109375 16.640625 8.109375 L 15.503906 8.109375 C 15.226562 8.109375 15.003906 8.335938 15.003906 8.609375 L 15.003906 9.746094 C 15.003906 10.023438 14.78125 10.246094 14.503906 10.246094 L 13.367188 10.246094 C 13.089844 10.246094 12.867188 10.46875 12.867188 10.746094 L 12.867188 11.882812 C 12.867188 12.15625 13.089844 12.382812 13.367188 12.382812 " fill-opacity="1" fill-rule="nonzero"/><path fill="#3ea76a" d="M 6.464844 12.984375 C 6.464844 12.648438 6.195312 12.382812 5.863281 12.382812 L 4.929688 12.382812 C 4.597656 12.382812 4.328125 12.648438 4.328125 12.984375 L 4.328125 13.914062 C 4.328125 14.246094 4.597656 14.515625 4.929688 14.515625 L 5.863281 14.515625 C 6.195312 14.515625 6.464844 14.246094 6.464844 13.914062 L 6.464844 12.984375 " fill-opacity="1" fill-rule="nonzero"/><path fill="#3ea76a" d="M 9.199219 12.382812 C 8.867188 12.382812 8.597656 12.648438 8.597656 12.984375 L 8.597656 13.914062 C 8.597656 14.246094 8.867188 14.515625 9.199219 14.515625 L 10.132812 14.515625 C 10.464844 14.515625 10.734375 14.785156 10.734375 15.117188 L 10.734375 16.050781 C 10.734375 16.382812 11.003906 16.652344 11.335938 16.652344 L 12.265625 16.652344 C 12.597656 16.652344 12.867188 16.382812 12.867188 16.050781 L 12.867188 12.984375 C 12.867188 12.648438 12.597656 12.382812 12.265625 12.382812 L 9.199219 12.382812 " fill-opacity="1" fill-rule="nonzero"/><path fill="#3ea76a" d="M 19.875 14.515625 L 20.804688 14.515625 C 21.140625 14.515625 21.410156 14.785156 21.410156 15.117188 L 21.410156 16.050781 C 21.410156 16.382812 21.679688 16.652344 22.011719 16.652344 L 25.078125 16.652344 C 25.410156 16.652344 25.679688 16.382812 25.679688 16.050781 L 25.679688 15.117188 C 25.679688 14.785156 25.410156 14.515625 25.078125 14.515625 L 24.144531 14.515625 C 23.8125 14.515625 23.542969 14.246094 23.542969 13.914062 L 23.542969 12.984375 C 23.542969 12.648438 23.273438 12.382812 22.941406 12.382812 L 19.875 12.382812 C 19.542969 12.382812 19.273438 12.648438 19.273438 12.984375 L 19.273438 13.914062 C 19.273438 14.246094 19.542969 14.515625 19.875 14.515625 " fill-opacity="1" fill-rule="nonzero"/><path fill="#3ea76a" d="M 7.066406 16.652344 L 7.996094 16.652344 C 8.328125 16.652344 8.597656 16.382812 8.597656 16.050781 L 8.597656 15.117188 C 8.597656 14.785156 8.328125 14.515625 7.996094 14.515625 L 7.066406 14.515625 C 6.734375 14.515625 6.464844 14.785156 6.464844 15.117188 L 6.464844 16.050781 C 6.464844 16.382812 6.734375 16.652344 7.066406 16.652344 " fill-opacity="1" fill-rule="nonzero"/><path fill="#3ea76a" d="M 19.273438 15.117188 C 19.273438 14.785156 19.003906 14.515625 18.671875 14.515625 L 15.605469 14.515625 C 15.273438 14.515625 15.003906 14.785156 15.003906 15.117188 L 15.003906 16.050781 C 15.003906 16.382812 15.273438 16.652344 15.605469 16.652344 L 18.671875 16.652344 C 19.003906 16.652344 19.273438 16.382812 19.273438 16.050781 L 19.273438 15.117188 " fill-opacity="1" fill-rule="nonzero"/><path fill="#3ea76a" d="M 8.597656 19.386719 C 8.597656 19.054688 8.328125 18.785156 7.996094 18.785156 L 4.929688 18.785156 C 4.597656 18.785156 4.328125 19.054688 4.328125 19.386719 L 4.328125 20.320312 C 4.328125 20.652344 4.597656 20.921875 4.929688 20.921875 L 7.996094 20.921875 C 8.328125 20.921875 8.597656 20.652344 8.597656 20.320312 L 8.597656 19.386719 " fill-opacity="1" fill-rule="nonzero"/><path fill="#3ea76a" d="M 12.265625 18.785156 L 11.335938 18.785156 C 11.003906 18.785156 10.734375 19.054688 10.734375 19.386719 L 10.734375 20.320312 C 10.734375 20.652344 11.003906 20.921875 11.335938 20.921875 L 12.265625 20.921875 C 12.597656 20.921875 12.867188 20.652344 12.867188 20.320312 L 12.867188 19.386719 C 12.867188 19.054688 12.597656 18.785156 12.265625 18.785156 " fill-opacity="1" fill-rule="nonzero"/><path fill="#3ea76a" d="M 16.554688 18.785156 L 15.621094 18.785156 C 15.289062 18.785156 15.019531 19.054688 15.019531 19.386719 L 15.019531 20.320312 C 15.019531 20.652344 15.289062 20.921875 15.621094 20.921875 L 16.554688 20.921875 C 16.886719 20.921875 17.15625 20.652344 17.15625 20.320312 L 17.15625 19.386719 C 17.15625 19.054688 16.886719 18.785156 16.554688 18.785156 " fill-opacity="1" fill-rule="nonzero"/><path fill="#3ea76a" d="M 10.734375 21.523438 C 10.734375 21.191406 10.464844 20.921875 10.132812 20.921875 L 9.199219 20.921875 C 8.867188 20.921875 8.597656 21.191406 8.597656 21.523438 L 8.597656 22.453125 C 8.597656 22.785156 8.867188 23.054688 9.199219 23.054688 L 10.132812 23.054688 C 10.464844 23.054688 10.734375 22.785156 10.734375 22.453125 L 10.734375 21.523438 " fill-opacity="1" fill-rule="nonzero"/><path fill="#3ea76a" d="M 16.535156 23.054688 L 15.605469 23.054688 C 15.273438 23.054688 15.003906 22.785156 15.003906 22.453125 L 15.003906 21.523438 C 15.003906 21.191406 14.734375 20.921875 14.402344 20.921875 L 13.46875 20.921875 C 13.136719 20.921875 12.867188 21.191406 12.867188 21.523438 L 12.867188 22.453125 C 12.867188 22.785156 12.597656 23.054688 12.265625 23.054688 L 11.335938 23.054688 C 11.003906 23.054688 10.734375 23.324219 10.734375 23.65625 L 10.734375 24.589844 C 10.734375 24.921875 11.003906 25.191406 11.335938 25.191406 L 16.535156 25.191406 C 16.867188 25.191406 17.136719 24.921875 17.136719 24.589844 L 17.136719 23.65625 C 17.136719 23.324219 16.867188 23.054688 16.535156 23.054688 " fill-opacity="1" fill-rule="nonzero"/><path fill="#3ea76a" d="M 23.542969 22.777344 C 23.542969 22.929688 23.417969 23.054688 23.265625 23.054688 L 21.6875 23.054688 C 21.535156 23.054688 21.410156 22.929688 21.410156 22.777344 L 21.410156 21.199219 C 21.410156 21.046875 21.535156 20.921875 21.6875 20.921875 L 23.265625 20.921875 C 23.417969 20.921875 23.542969 21.046875 23.542969 21.199219 Z M 24.460938 18.785156 L 20.492188 18.789062 C 19.816406 18.789062 19.273438 19.332031 19.273438 20.003906 L 19.273438 23.972656 C 19.273438 24.644531 19.820312 25.191406 20.492188 25.191406 L 24.460938 25.191406 C 25.132812 25.191406 25.679688 24.644531 25.679688 23.972656 L 25.679688 20.003906 C 25.679688 19.332031 25.132812 18.785156 24.460938 18.785156 " fill-opacity="1" fill-rule="nonzero"/><path fill="#3ea76a" d="M 23.542969 7.832031 C 23.542969 7.984375 23.417969 8.109375 23.265625 8.109375 L 21.6875 8.109375 C 21.535156 8.109375 21.410156 7.984375 21.410156 7.832031 L 21.410156 6.253906 C 21.410156 6.101562 21.535156 5.976562 21.6875 5.976562 L 23.265625 5.976562 C 23.417969 5.976562 23.542969 6.101562 23.542969 6.253906 Z M 24.460938 3.839844 L 20.492188 3.84375 C 19.816406 3.84375 19.273438 4.386719 19.273438 5.0625 L 19.273438 9.027344 C 19.273438 9.699219 19.820312 10.246094 20.492188 10.246094 L 24.460938 10.246094 C 25.132812 10.246094 25.679688 9.699219 25.679688 9.027344 L 25.679688 5.058594 C 25.679688 4.386719 25.132812 3.839844 24.460938 3.839844 " fill-opacity="1" fill-rule="nonzero"/><g clip-path="url(#id1)"><path fill="#3ea76a" d="M 28.683594 6.808594 C 28.21875 6.808594 27.84375 6.433594 27.84375 5.96875 L 27.84375 2.257812 C 27.84375 1.9375 27.582031 1.675781 27.261719 1.675781 L 23.550781 1.675781 C 23.085938 1.675781 22.710938 1.300781 22.710938 0.835938 C 22.710938 0.375 23.085938 0 23.550781 0 L 27.261719 0 C 28.507812 0 29.519531 1.011719 29.519531 2.257812 L 29.519531 5.96875 C 29.519531 6.433594 29.144531 6.808594 28.683594 6.808594 " fill-opacity="1" fill-rule="nonzero"/></g><g clip-path="url(#id2)"><path fill="#3ea76a" d="M 27.261719 29.035156 L 23.550781 29.035156 C 23.085938 29.035156 22.710938 28.660156 22.710938 28.195312 C 22.710938 27.734375 23.085938 27.359375 23.550781 27.359375 L 27.261719 27.359375 C 27.582031 27.359375 27.84375 27.097656 27.84375 26.773438 L 27.84375 23.0625 C 27.84375 22.597656 28.21875 22.222656 28.683594 22.222656 C 29.144531 22.222656 29.519531 22.597656 29.519531 23.0625 L 29.519531 26.773438 C 29.519531 28.019531 28.507812 29.035156 27.261719 29.035156 " fill-opacity="1" fill-rule="nonzero"/></g><g clip-path="url(#id3)"><path fill="#3ea76a" d="M 1.324219 6.808594 C 0.859375 6.808594 0.484375 6.433594 0.484375 5.96875 L 0.484375 2.257812 C 0.484375 1.011719 1.5 0 2.746094 0 L 6.457031 0 C 6.921875 0 7.296875 0.375 7.296875 0.835938 C 7.296875 1.300781 6.921875 1.675781 6.457031 1.675781 L 2.746094 1.675781 C 2.421875 1.675781 2.160156 1.9375 2.160156 2.257812 L 2.160156 5.96875 C 2.160156 6.433594 1.785156 6.808594 1.324219 6.808594 " fill-opacity="1" fill-rule="nonzero"/></g><g clip-path="url(#id4)"><path fill="#3ea76a" d="M 6.457031 29.035156 L 2.746094 29.035156 C 1.5 29.035156 0.484375 28.019531 0.484375 26.773438 L 0.484375 23.0625 C 0.484375 22.597656 0.859375 22.222656 1.324219 22.222656 C 1.785156 22.222656 2.160156 22.597656 2.160156 23.0625 L 2.160156 26.773438 C 2.160156 27.097656 2.421875 27.359375 2.746094 27.359375 L 6.457031 27.359375 C 6.921875 27.359375 7.296875 27.734375 7.296875 28.195312 C 7.296875 28.660156 6.921875 29.035156 6.457031 29.035156 " fill-opacity="1" fill-rule="nonzero"/></g></svg>
