<svg xmlns="http://www.w3.org/2000/svg" xmlns:xlink="http://www.w3.org/1999/xlink" width="100" zoomAndPan="magnify" viewBox="0 0 30 30.000001" height="100" preserveAspectRatio="xMidYMid meet" version="1.0"><defs><clipPath id="75acf19ba2"><path d="M 0.484375 16 L 13 16 L 13 29.03125 L 0.484375 29.03125 Z M 0.484375 16 " clip-rule="nonzero"/></clipPath><clipPath id="71b10eedab"><path d="M 8 0.0078125 L 29.515625 0.0078125 L 29.515625 22 L 8 22 Z M 8 0.0078125 " clip-rule="nonzero"/></clipPath><clipPath id="88019a829d"><path d="M 0.484375 0 L 7.707031 0 L 7.707031 7.207031 L 0.484375 7.207031 Z M 0.484375 0 " clip-rule="nonzero"/></clipPath></defs><g clip-path="url(#75acf19ba2)"><path fill="#006FE6" d="M 12.363281 23.605469 L 11.707031 23.367188 C 11.753906 22.894531 11.730469 22.394531 11.660156 21.921875 L 12.292969 21.636719 C 12.695312 21.445312 12.859375 20.96875 12.671875 20.589844 L 12.292969 19.785156 C 12.105469 19.378906 11.636719 19.214844 11.257812 19.402344 L 10.625 19.6875 C 10.320312 19.308594 9.964844 18.976562 9.566406 18.691406 L 9.800781 18.027344 C 9.941406 17.625 9.730469 17.148438 9.332031 17.007812 L 8.507812 16.699219 C 8.105469 16.554688 7.636719 16.769531 7.496094 17.171875 L 7.261719 17.835938 C 6.789062 17.789062 6.296875 17.8125 5.824219 17.882812 L 5.519531 17.21875 C 5.332031 16.816406 4.859375 16.648438 4.484375 16.839844 L 3.683594 17.21875 C 3.285156 17.410156 3.121094 17.882812 3.308594 18.265625 L 3.589844 18.90625 C 3.214844 19.214844 2.882812 19.570312 2.601562 19.972656 L 1.945312 19.734375 C 1.542969 19.59375 1.074219 19.808594 0.933594 20.210938 L 0.625 21.042969 C 0.554688 21.230469 0.554688 21.445312 0.648438 21.660156 C 0.742188 21.847656 0.886719 21.992188 1.097656 22.0625 L 1.753906 22.300781 C 1.707031 22.773438 1.730469 23.273438 1.800781 23.75 L 1.167969 24.03125 C 0.765625 24.222656 0.601562 24.699219 0.789062 25.078125 L 1.167969 25.882812 C 1.355469 26.289062 1.824219 26.453125 2.203125 26.265625 L 2.835938 25.980469 C 3.144531 26.359375 3.496094 26.691406 3.894531 26.976562 L 3.660156 27.640625 C 3.589844 27.832031 3.589844 28.042969 3.683594 28.257812 C 3.777344 28.449219 3.917969 28.589844 4.132812 28.660156 L 4.953125 28.96875 C 5.144531 29.042969 5.355469 29.042969 5.566406 28.945312 C 5.753906 28.851562 5.894531 28.710938 5.964844 28.496094 L 6.203125 27.832031 C 6.671875 27.878906 7.167969 27.855469 7.636719 27.785156 L 7.917969 28.425781 C 8.105469 28.828125 8.578125 28.996094 8.953125 28.804688 L 9.753906 28.425781 C 10.152344 28.234375 10.320312 27.761719 10.128906 27.378906 L 9.847656 26.738281 C 10.222656 26.429688 10.554688 26.074219 10.835938 25.671875 L 11.496094 25.910156 C 11.683594 25.980469 11.917969 25.980469 12.105469 25.882812 C 12.292969 25.789062 12.4375 25.648438 12.507812 25.433594 L 12.8125 24.601562 C 12.976562 24.222656 12.765625 23.773438 12.363281 23.605469 Z M 8.035156 25.695312 C 7.613281 25.882812 7.191406 25.980469 6.742188 25.980469 C 5.519531 25.980469 4.414062 25.265625 3.917969 24.152344 C 3.191406 22.585938 3.894531 20.710938 5.449219 19.972656 C 5.871094 19.785156 6.296875 19.6875 6.742188 19.6875 C 7.964844 19.6875 9.070312 20.402344 9.566406 21.515625 C 10.269531 23.105469 9.589844 24.957031 8.035156 25.695312 Z M 8.035156 25.695312 " fill-opacity="1" fill-rule="nonzero"/></g><g clip-path="url(#71b10eedab)"><path fill="#006FE6" d="M 28.410156 11.902344 L 27.304688 11.5 C 27.398438 10.691406 27.351562 9.859375 27.210938 9.054688 L 28.269531 8.554688 C 28.925781 8.246094 29.234375 7.464844 28.925781 6.773438 L 28.316406 5.421875 C 28.007812 4.757812 27.234375 4.449219 26.550781 4.757812 L 25.492188 5.253906 C 24.976562 4.613281 24.363281 4.046875 23.703125 3.59375 L 24.105469 2.476562 C 24.363281 1.789062 24.011719 1.007812 23.328125 0.769531 L 21.941406 0.246094 C 21.28125 0.0078125 20.480469 0.367188 20.246094 1.03125 L 19.847656 2.144531 C 19.046875 2.050781 18.222656 2.097656 17.421875 2.242188 L 16.929688 1.171875 C 16.625 0.507812 15.847656 0.199219 15.164062 0.507812 L 13.824219 1.125 C 13.164062 1.433594 12.859375 2.21875 13.164062 2.90625 L 13.660156 3.972656 C 13.023438 4.496094 12.460938 5.113281 12.011719 5.777344 L 10.90625 5.375 C 10.246094 5.136719 9.449219 5.492188 9.210938 6.15625 L 8.695312 7.558594 C 8.578125 7.890625 8.578125 8.246094 8.742188 8.578125 C 8.882812 8.910156 9.164062 9.148438 9.496094 9.265625 L 10.601562 9.671875 C 10.507812 10.476562 10.53125 11.308594 10.695312 12.117188 L 9.636719 12.613281 C 8.976562 12.921875 8.671875 13.707031 8.976562 14.394531 L 9.589844 15.75 C 9.894531 16.414062 10.671875 16.722656 11.355469 16.414062 L 12.414062 15.914062 C 12.929688 16.554688 13.542969 17.125 14.199219 17.574219 L 13.800781 18.691406 C 13.683594 19.023438 13.683594 19.378906 13.847656 19.710938 C 13.988281 20.042969 14.269531 20.28125 14.601562 20.402344 L 15.988281 20.921875 C 16.316406 21.042969 16.671875 21.042969 17 20.875 C 17.328125 20.734375 17.5625 20.449219 17.683594 20.117188 L 18.082031 19 C 18.882812 19.09375 19.703125 19.070312 20.503906 18.90625 L 21 19.972656 C 21.304688 20.636719 22.082031 20.945312 22.761719 20.636719 L 24.105469 20.019531 C 24.761719 19.710938 25.070312 18.929688 24.761719 18.242188 L 24.269531 17.171875 C 24.902344 16.648438 25.46875 16.03125 25.914062 15.367188 L 27.019531 15.773438 C 27.351562 15.890625 27.703125 15.890625 28.03125 15.722656 C 28.363281 15.582031 28.597656 15.296875 28.714844 14.964844 L 29.234375 13.5625 C 29.445312 12.921875 29.089844 12.164062 28.410156 11.902344 Z M 21.140625 15.390625 C 20.457031 15.722656 19.703125 15.867188 18.953125 15.867188 C 16.90625 15.867188 15.046875 14.65625 14.199219 12.804688 C 12.976562 10.167969 14.128906 7.011719 16.742188 5.800781 C 17.421875 5.46875 18.175781 5.328125 18.929688 5.328125 C 20.976562 5.328125 22.832031 6.539062 23.679688 8.390625 C 24.902344 11.023438 23.75 14.179688 21.140625 15.390625 Z M 21.140625 15.390625 " fill-opacity="1" fill-rule="nonzero"/></g><g clip-path="url(#88019a829d)"><path fill="#006FE6" d="M 4.074219 -0.0507812 C 2.070312 -0.0507812 0.449219 1.570312 0.449219 3.578125 C 0.449219 5.582031 2.070312 7.207031 4.074219 7.207031 C 6.078125 7.207031 7.707031 5.582031 7.707031 3.578125 C 7.707031 1.570312 6.078125 -0.0507812 4.074219 -0.0507812 Z M 4.078125 6.480469 C 2.472656 6.480469 1.171875 5.179688 1.171875 3.578125 C 1.171875 1.972656 2.472656 0.671875 4.078125 0.671875 C 5.679688 0.671875 6.980469 1.972656 6.980469 3.578125 C 6.980469 5.179688 5.679688 6.480469 4.078125 6.480469 Z M 4.078125 6.480469 " fill-opacity="1" fill-rule="nonzero"/></g><path fill="#006FE6" d="M 4.257812 1.761719 L 3.714844 1.761719 L 3.714844 3.941406 L 5.617188 5.082031 L 5.890625 4.636719 L 4.257812 3.667969 Z M 4.257812 1.761719 " fill-opacity="1" fill-rule="nonzero"/></svg>
